<svg id="Layer_1" enable-background="new 0 0 66 66" height="512" viewBox="0 0 66 66" width="512" xmlns="http://www.w3.org/2000/svg"><g><path d="m25.28 39.2h-3.57-.19c1.83-1.46 3.02-3.7 3.02-6.22 0-4.38-3.56-7.94-7.94-7.94s-7.94 3.56-7.94 7.94c0 2.52 1.18 4.76 3.02 6.22h-.19-3.58c-3.56 0-6.45 2.89-6.45 6.44v14.35c0 1.08.42 2.11 1.2 2.89.78.77 1.8 1.19 2.89 1.19.87 0 1.68-.27 2.35-.74v.67c0 .48.39.88.88.88h15.64c.48 0 .88-.39.88-.88v-.66c.67.47 1.48.74 2.35.74 1.08 0 2.11-.42 2.89-1.2.77-.78 1.19-1.8 1.19-2.89v-14.34c0-3.56-2.9-6.45-6.45-6.45zm-14.88-6.21c0-3.41 2.78-6.19 6.19-6.19s6.19 2.78 6.19 6.19-2.78 6.19-6.19 6.19-6.19-2.78-6.19-6.19zm6.19 12.54-3.38-4.57h6.76zm-11.04 16.8c-.62 0-1.21-.24-1.65-.68-.44-.45-.69-1.04-.69-1.66v-1.56h4.69v1.56.01c-.01 1.29-1.06 2.33-2.35 2.33zm4.1-10.55c0-.48-.39-.88-.88-.88s-.87.4-.87.88v4.9h-4.69v-11.03c0-2.59 2.11-4.69 4.7-4.69h3.12l4.68 6.34v15.84h-6.06zm19.65 9.86c-.45.44-1.04.69-1.66.69-1.3 0-2.35-1.05-2.35-2.34s0 0 0 0v-1.56h4.68v1.56c.01.62-.24 1.21-.67 1.65zm.68-4.96h-4.68v-4.9c0-.48-.39-.88-.88-.88s-.88.39-.88.88v8.21s0 0 0 0v3.13h-6.08v-15.83l4.68-6.34h3.13c2.59 0 4.7 2.11 4.7 4.69v11.04z"/><path d="m61.68 1.13h-44.93c-1.57 0-2.85 1.28-2.85 2.85v15.66c0 1.57 1.28 2.85 2.85 2.85h16.95c.04 0 .07.02.09.05l3.9 5.48c.35.49.92.78 1.52.78s1.17-.29 1.52-.78l3.9-5.48c.02-.03.06-.05.09-.05h16.96c1.57 0 2.85-1.28 2.85-2.85v-15.66c.01-1.57-1.27-2.85-2.85-2.85zm1.11 18.51c0 .61-.5 1.1-1.1 1.1h-16.97c-.6 0-1.17.29-1.52.78l-3.9 5.48c-.02.02-.17.02-.19 0l-3.9-5.48c-.35-.49-.92-.78-1.52-.78h-16.94c-.61 0-1.1-.5-1.1-1.1v-15.66c0-.61.49-1.1 1.1-1.1h44.94c.61 0 1.1.5 1.1 1.1z"/><path d="m30.18 9.65-3.52-.51-1.58-3.19c-.29-.6-1.28-.6-1.57 0l-1.58 3.19-3.52.51c-.33.05-.6.28-.71.6-.1.32-.02.66.22.9l2.55 2.48-.6 3.51c-.06.33.08.66.35.86s.63.22.92.07l3.15-1.66 3.15 1.66c.13.07.27.1.41.1.18 0 .36-.06.51-.17.27-.2.4-.53.35-.86l-.6-3.51 2.55-2.48c.24-.23.32-.58.22-.9s-.37-.55-.7-.6zm-3.62 3.05c-.21.2-.3.49-.25.77l.38 2.21-1.99-1.04c-.13-.07-.27-.1-.41-.1s-.28.03-.41.1l-1.99 1.04.38-2.21c.05-.28-.04-.57-.25-.77l-1.61-1.57 2.22-.32c.29-.04.53-.22.66-.48l.99-2.01.99 2.01c.13.26.37.44.66.48l2.22.32z"/><path d="m45.1 9.65-3.52-.51-1.58-3.19c-.29-.6-1.28-.6-1.57 0l-1.58 3.19-3.52.51c-.33.05-.6.28-.71.6-.1.32-.02.66.22.9l2.55 2.48-.6 3.51c-.06.33.08.66.35.86s.63.22.92.07l3.15-1.66 3.15 1.66c.13.07.27.1.41.1.18 0 .36-.06.51-.17.27-.2.4-.53.35-.86l-.6-3.51 2.55-2.48c.24-.23.32-.58.22-.9s-.38-.55-.7-.6zm-3.62 3.05c-.21.2-.3.49-.25.77l.38 2.21-1.99-1.04c-.13-.07-.27-.1-.41-.1s-.28.03-.41.1l-1.99 1.04.38-2.21c.05-.28-.04-.57-.25-.77l-1.61-1.57 2.22-.32c.29-.04.53-.22.66-.48l.99-2.01.99 2.01c.13.26.37.44.66.48l2.22.32z"/><path d="m60.01 9.65-3.52-.51-1.58-3.19c-.29-.6-1.28-.6-1.57 0l-1.58 3.19-3.52.51c-.33.05-.6.28-.71.6-.1.32-.02.66.22.9l2.55 2.48-.6 3.51c-.06.33.08.66.35.86s.63.22.92.07l3.15-1.66 3.15 1.66c.13.07.27.1.41.1.18 0 .36-.06.51-.17.27-.2.4-.53.35-.86l-.6-3.51 2.55-2.48c.24-.23.32-.58.22-.9-.09-.32-.37-.55-.7-.6zm-3.61 3.05c-.21.2-.3.49-.25.77l.38 2.21-1.99-1.04c-.13-.07-.27-.1-.41-.1s-.28.03-.41.1l-1.99 1.04.38-2.21c.05-.28-.04-.57-.25-.77l-1.61-1.57 2.22-.32c.29-.04.53-.22.66-.48l.99-2.01.99 2.01c.13.26.37.44.66.48l2.22.32z"/><path d="m51.46 24.34c-5.52 0-10.01 4.49-10.01 10.01s4.49 10.01 10.01 10.01 10.01-4.49 10.01-10.01-4.49-10.01-10.01-10.01zm0 18.26c-4.55 0-8.26-3.7-8.26-8.26 0-4.55 3.7-8.26 8.26-8.26s8.26 3.7 8.26 8.26-3.71 8.26-8.26 8.26z"/><path d="m54.61 31.14-4.55 4.55-1.74-1.74c-.34-.34-.9-.34-1.24 0s-.34.9 0 1.24l2.36 2.36c.17.17.4.26.62.26s.45-.09.62-.26l5.17-5.17c.34-.34.34-.9 0-1.24-.35-.34-.9-.34-1.24 0z"/></g></svg>