<svg id="Data_Integration" viewBox="0 0 64 64" xmlns="http://www.w3.org/2000/svg" data-name="Data Integration"><path d="m34 15.19c0-.55-.45-1-1-1h-2.39c-.25-.83-.59-1.64-1-2.41l1.69-1.69c.39-.39.39-1.02 0-1.41l-3.98-3.98c-.39-.39-1.02-.39-1.41 0l-1.69 1.69c-.77-.41-1.58-.75-2.41-1v-2.39c0-.55-.45-1-1-1h-5.62c-.55 0-1 .45-1 1v2.39c-.83.25-1.64.59-2.41 1l-1.69-1.69c-.39-.39-1.02-.39-1.41 0l-3.98 3.98c-.39.39-.39 1.02 0 1.41l1.69 1.69c-.41.77-.75 1.58-1 2.41h-2.39c-.55 0-1 .45-1 1v5.62c0 .55.45 1 1 1h2.39c.25.83.59 1.64 1 2.41l-1.69 1.69c-.39.39-.39 1.02 0 1.41l3.98 3.98c.39.39 1.02.39 1.41 0l1.69-1.69c.77.41 1.58.75 2.41 1v2.39c0 .55.45 1 1 1h5.62c.55 0 1-.45 1-1v-2.39c.83-.25 1.64-.59 2.41-1l1.69 1.69c.39.39 1.02.39 1.41 0l3.98-3.98c.39-.39.39-1.02 0-1.41l-1.69-1.69c.41-.77.75-1.58 1-2.41h2.39c.55 0 1-.45 1-1zm-2 4.62h-2.15c-.46 0-.87.32-.97.77-.27 1.16-.73 2.26-1.36 3.28-.24.39-.18.9.14 1.23l1.52 1.52-2.56 2.56-1.52-1.52c-.33-.33-.84-.39-1.23-.14-1.02.63-2.12 1.09-3.28 1.36-.45.11-.77.51-.77.97v2.15h-3.62v-2.15c0-.46-.32-.87-.77-.97-1.16-.27-2.26-.73-3.28-1.36-.39-.24-.9-.18-1.23.14l-1.52 1.52-2.56-2.56 1.52-1.52c.33-.33.39-.84.14-1.23-.63-1.02-1.09-2.12-1.36-3.28-.11-.45-.51-.77-.97-.77h-2.15v-3.62h2.15c.46 0 .87-.32.97-.77.27-1.16.73-2.26 1.36-3.28.24-.39.18-.9-.14-1.23l-1.52-1.52 2.56-2.56 1.52 1.52c.33.33.84.39 1.23.14 1.02-.63 2.12-1.09 3.28-1.36.45-.11.77-.51.77-.97v-2.15h3.62v2.15c0 .46.32.87.77.97 1.16.27 2.26.73 3.28 1.36.39.24.91.18 1.23-.14l1.52-1.52 2.56 2.56-1.52 1.52c-.33.33-.39.84-.14 1.23.63 1.02 1.09 2.12 1.36 3.28.11.45.51.77.97.77h2.15z"/><path d="m18 11c-3.86 0-7 3.14-7 7s3.14 7 7 7 7-3.14 7-7-3.14-7-7-7zm0 12c-2.76 0-5-2.24-5-5s2.24-5 5-5 5 2.24 5 5-2.24 5-5 5z"/><path d="m48 32c-6.96 0-14 1.72-14 5v20c0 3.28 7.04 5 14 5s14-1.72 14-5v-20c0-3.28-7.04-5-14-5zm12 15c0 1.06-4.56 3-12 3s-12-1.94-12-3v-7.3c2.58 1.52 7.31 2.3 12 2.3s9.42-.78 12-2.3zm-12-13c7.44 0 12 1.94 12 3s-4.56 3-12 3-12-1.94-12-3 4.56-3 12-3zm0 26c-7.44 0-12-1.94-12-3v-7.3c2.58 1.52 7.31 2.3 12 2.3s9.42-.78 12-2.3v7.3c0 1.06-4.56 3-12 3z"/><circle cx="48" cy="56" r="1"/><circle cx="48" cy="46" r="1"/><path d="m29 52h-9c-1.65 0-3-1.35-3-3v-7.59l1.29 1.29c.2.2.45.29.71.29s.51-.1.71-.29c.39-.39.39-1.02 0-1.41l-3-3c-.39-.39-1.02-.39-1.41 0l-3 3c-.39.39-.39 1.02 0 1.41s1.02.39 1.41 0l1.29-1.29v7.59c0 2.76 2.24 5 5 5h9c.55 0 1-.45 1-1s-.45-1-1-1z"/><path d="m39 14h9c1.65 0 3 1.35 3 3v7.59l-1.29-1.29c-.39-.39-1.02-.39-1.41 0s-.39 1.02 0 1.41l3 3c.2.2.45.29.71.29s.51-.1.71-.29l3-3c.39-.39.39-1.02 0-1.41s-1.02-.39-1.41 0l-1.29 1.29v-7.59c0-2.76-2.24-5-5-5h-9c-.55 0-1 .45-1 1s.45 1 1 1z"/></svg>