<svg id="Layer_1" enable-background="new 0 0 512 512" viewBox="0 0 512 512" xmlns="http://www.w3.org/2000/svg"><path d="m21 355.52h266.38c3.31 0 6-2.69 6-6v-45.55c0-19.11-12.1-36.12-30.17-42.45l-73.94-36.97v-24.52c2.8-1.97 5.42-4.12 7.81-6.47 8.33-8.18 13.83-18.2 16.27-29.45h6.09c9.33 0 16.92-7.59 16.92-16.92v-5.78c0-8.56-6.4-15.64-14.66-16.75 4.16-21.53-2.39-48.23-16.45-64.05-13.66-15.37-33.29-24.18-53.87-24.18-20.55 0-40.18 8.81-53.84 24.18-14.77 16.62-22.67 44.92-14.32 64.89-6.53 2.35-11.23 8.59-11.23 15.92v5.78c0 9.33 7.59 16.92 16.92 16.92h6.48c3.29 14.35 11.69 26.71 23.69 35.48v24.96l-73.93 36.97c-18.05 6.33-30.15 23.33-30.15 42.44v45.55c0 3.32 2.69 6 6 6zm124.71-98.17-15.47 15.46-17.99-31.42 11.67-5.83zm38.61-21.86 11.81 5.9-17.99 31.42-16.34-16.34zm-27.38 39.17 11.26 68.87h-28.25l10.65-68.87zm102.01-1.92c13.42 4.57 22.43 17.12 22.43 31.23v39.55h-44.64v-31.57c0-3.31-2.69-6-6-6s-6 2.69-6 6v31.57h-44.39l-10.07-61.59 4.92 4.92c1.13 1.13 2.66 1.76 4.24 1.76.26 0 .53-.02.79-.05 1.85-.25 3.48-1.34 4.41-2.97l22.23-38.82 51.32 25.66c.26.12.51.23.76.31zm-34.57-131.33v5.78c0 2.71-2.21 4.92-4.92 4.92h-4.67c.01-.58.04-1.15.04-1.74v-13.89h4.63c2.71 0 4.92 2.21 4.92 4.93zm-117.85-72.84c11.39-12.81 27.74-20.15 44.87-20.15 17.15 0 33.51 7.35 44.9 20.15 9.83 11.06 15.31 29.15 14.63 45.3-16.26-21-35.16-15.5-52.14-10.55-14.65 4.26-28.48 8.29-43.22-1.16-1.78-1.14-4.03-1.26-5.92-.32s-3.15 2.81-3.31 4.92c-.9 11.86-5.29 15.8-10.48 17.26-8.85-14.87-2.11-41.08 10.67-55.45zm-17.6 83.55c-2.71 0-4.92-2.21-4.92-4.92v-5.78c0-2.71 2.21-4.92 4.92-4.92h3.05c.4.08.81.13 1.22.13.22 0 .44-.02.66-.04v13.8c0 .58.03 1.16.04 1.74h-4.97zm16.93-1.74v-17.8c5.42-3.4 9.11-8.81 11.05-16.19 16.36 6.86 31.58 2.43 45.24-1.55 17.02-4.95 29.09-8.45 40.68 8.2v27.34c0 26.67-19.62 46.86-48.91 50.44-28.34-4.02-48.06-24.67-48.06-50.44zm47.21 62.43.72.09.72-.08c8.06-.9 15.75-2.97 22.76-6.05v18.88l-23.97 22.33-22.21-22.21v-19.19c6.69 3.06 14.06 5.19 21.98 6.23zm-126.07 91.16c0-14.11 9.01-26.66 22.43-31.23.26-.09.51-.19.75-.31l51.32-25.66 22.23 38.82c.93 1.62 2.56 2.72 4.41 2.97.27.04.53.05.79.05 1.58 0 3.11-.62 4.24-1.76l4.01-4.01-9.38 60.68h-44.17v-31.57c0-3.31-2.69-6-6-6s-6 2.69-6 6v31.57h-44.63zm268.67-22.9h142.97c3.31 0 6-2.69 6-6v-21.23h28.04c3.31 0 6-2.69 6-6v-208.78c0-3.31-2.69-6-6-6h-142.97c-3.31 0-6 2.69-6 6v21.23h-28.04c-3.31 0-6 2.69-6 6v208.78c0 3.31 2.68 6 6 6zm40.04-236.01h130.97v196.78h-130.97zm-34.04 27.23h22.04v175.55c0 3.31 2.69 6 6 6h102.93v15.23h-130.97zm156.01-6c0 3.31-2.69 6-6 6h-103.25c-3.31 0-6-2.69-6-6s2.69-6 6-6h103.25c3.32 0 6 2.69 6 6zm0 26.67c0 3.31-2.69 6-6 6h-103.25c-3.31 0-6-2.69-6-6s2.69-6 6-6h103.25c3.32 0 6 2.68 6 6zm0 26.66c0 3.31-2.69 6-6 6h-103.25c-3.31 0-6-2.69-6-6s2.69-6 6-6h103.25c3.32 0 6 2.69 6 6zm0 26.67c0 3.31-2.69 6-6 6h-103.25c-3.31 0-6-2.69-6-6s2.69-6 6-6h103.25c3.32 0 6 2.68 6 6zm0 26.66c0 3.31-2.69 6-6 6h-103.25c-3.31 0-6-2.69-6-6s2.69-6 6-6h103.25c3.32 0 6 2.69 6 6zm0 26.67c0 3.31-2.69 6-6 6h-103.25c-3.31 0-6-2.69-6-6s2.69-6 6-6h103.25c3.32 0 6 2.68 6 6zm-362.56 224.03-23-1.7-8.73-21.35c-.92-2.26-3.12-3.73-5.55-3.73s-4.63 1.47-5.55 3.73l-8.73 21.35-23 1.7c-2.43.18-4.51 1.81-5.26 4.13s-.03 4.86 1.83 6.44l17.61 14.9-5.49 22.4c-.58 2.37.33 4.85 2.3 6.28s4.62 1.53 6.69.25l19.61-12.14 19.61 12.14c.97.6 2.07.9 3.16.9 1.24 0 2.48-.38 3.53-1.15 1.97-1.43 2.88-3.92 2.3-6.28l-5.49-22.4 17.61-14.9c1.86-1.57 2.58-4.12 1.83-6.44-.77-2.32-2.85-3.95-5.28-4.13zm-24.76 18.7c-1.74 1.47-2.49 3.8-1.95 6.01l2.88 11.75-10.29-6.37c-.97-.6-2.06-.9-3.16-.9s-2.19.3-3.16.9l-10.29 6.37 2.88-11.75c.54-2.21-.21-4.54-1.95-6.01l-9.24-7.81 12.07-.89c2.27-.17 4.25-1.61 5.11-3.71l4.58-11.2 4.58 11.2c.86 2.11 2.84 3.55 5.11 3.71l12.07.89zm123.84-18.7-23-1.7-8.73-21.35c-.92-2.26-3.12-3.73-5.55-3.73s-4.63 1.47-5.55 3.73l-8.73 21.35-23 1.7c-2.43.18-4.51 1.81-5.26 4.13s-.03 4.86 1.83 6.44l17.61 14.9-5.49 22.4c-.58 2.37.33 4.85 2.3 6.28 1.05.76 2.29 1.15 3.53 1.15 1.09 0 2.19-.3 3.16-.9l19.61-12.14 19.61 12.14c2.07 1.28 4.71 1.19 6.69-.25 1.97-1.43 2.88-3.92 2.3-6.28l-5.49-22.4 17.61-14.9c1.86-1.57 2.58-4.12 1.83-6.44-.77-2.32-2.85-3.95-5.28-4.13zm-24.76 18.7c-1.74 1.47-2.49 3.8-1.95 6.01l2.88 11.75-10.29-6.37c-.97-.6-2.06-.9-3.16-.9s-2.19.3-3.16.9l-10.29 6.37 2.88-11.75c.54-2.21-.21-4.54-1.95-6.01l-9.24-7.81 12.07-.89c2.27-.17 4.25-1.61 5.11-3.71l4.58-11.2 4.58 11.2c.86 2.11 2.84 3.55 5.11 3.71l12.07.89zm123.84-18.7-23-1.7-8.73-21.35c-.92-2.26-3.12-3.73-5.55-3.73s-4.63 1.47-5.55 3.73l-8.73 21.35-23 1.7c-2.43.18-4.51 1.81-5.26 4.13s-.03 4.86 1.83 6.44l17.61 14.9-5.49 22.4c-.58 2.37.33 4.85 2.3 6.28s4.62 1.53 6.69.25l19.6-12.15 19.61 12.14c.97.6 2.07.9 3.16.9 1.24 0 2.48-.38 3.53-1.15 1.97-1.43 2.88-3.92 2.3-6.28l-5.49-22.4 17.61-14.9c1.86-1.57 2.58-4.12 1.83-6.44-.76-2.31-2.84-3.94-5.27-4.12zm-24.76 18.7c-1.74 1.47-2.49 3.8-1.95 6.01l2.88 11.75-10.29-6.37c-.97-.6-2.06-.9-3.16-.9s-2.19.3-3.16.9l-10.29 6.37 2.88-11.75c.54-2.21-.21-4.54-1.95-6.01l-9.24-7.81 12.07-.89c2.27-.17 4.25-1.61 5.11-3.71l4.58-11.2 4.58 11.2c.86 2.11 2.84 3.55 5.11 3.71l12.07.89zm123.84-18.7-23-1.7-8.73-21.35c-.92-2.26-3.12-3.73-5.55-3.73s-4.63 1.47-5.55 3.73l-8.73 21.35-23 1.7c-2.43.18-4.51 1.81-5.26 4.13s-.03 4.86 1.83 6.44l17.61 14.9-5.49 22.4c-.58 2.37.33 4.85 2.3 6.28 1.05.76 2.29 1.15 3.53 1.15 1.09 0 2.19-.3 3.16-.9l19.61-12.14 19.61 12.14c2.07 1.28 4.71 1.19 6.69-.25 1.97-1.43 2.88-3.92 2.3-6.28l-5.49-22.4 17.61-14.9c1.86-1.57 2.58-4.12 1.83-6.44-.77-2.32-2.85-3.95-5.28-4.13zm-24.76 18.7c-1.74 1.47-2.49 3.8-1.95 6.01l2.88 11.75-10.29-6.37c-1.94-1.2-4.38-1.2-6.32 0l-10.29 6.37 2.88-11.75c.54-2.21-.21-4.54-1.95-6.01l-9.24-7.81 12.07-.89c2.27-.17 4.25-1.61 5.11-3.71l4.58-11.2 4.58 11.2c.86 2.11 2.84 3.55 5.11 3.71l12.07.89zm129.11-14.57c-.75-2.32-2.83-3.95-5.26-4.13l-23-1.7-8.73-21.35c-.92-2.26-3.12-3.73-5.55-3.73-2.44 0-4.63 1.47-5.55 3.73l-8.73 21.35-23 1.7c-2.43.18-4.51 1.81-5.26 4.13s-.03 4.86 1.83 6.44l17.61 14.9-5.49 22.4c-.58 2.37.33 4.85 2.3 6.28s4.61 1.53 6.69.25l19.61-12.14 19.61 12.14c.97.6 2.07.9 3.16.9 1.24 0 2.48-.38 3.53-1.15 1.97-1.43 2.88-3.92 2.3-6.28l-5.49-22.4 17.61-14.9c1.84-1.58 2.56-4.12 1.81-6.44zm-30.03 14.57c-1.74 1.47-2.49 3.8-1.95 6.01l2.88 11.75-10.29-6.37c-1.94-1.2-4.38-1.2-6.32 0l-10.29 6.37 2.88-11.75c.54-2.21-.21-4.54-1.95-6.01l-9.24-7.81 12.07-.89c2.27-.17 4.25-1.61 5.11-3.71l4.58-11.2 4.58 11.2c.86 2.11 2.84 3.55 5.11 3.71l12.07.89z"/></svg>