<svg id="Layer_1" viewBox="0 0 512 512" xmlns="http://www.w3.org/2000/svg" data-name="Layer 1"><path d="m501.46 277.89c-8.93-11.13-22.26-18.29-36.57-19.64-15.89-1.51-32.22 4.13-46.02 15.87l-63.23 50.24-9.42 7.57c-1.7-5.49-4.71-11.47-10.04-15.97-6.31-5.33-14.44-7.46-24.16-6.36h-61.26c-15.2-13.94-32.83-20.84-52.48-20.57-34.73.5-75.12 23.64-120.11 68.76l-20.14-22.57c-2.57-2.89-7-3.14-9.88-.57l-36.79 32.8c-1.39 1.24-2.23 2.97-2.33 4.83-.11 1.85.53 3.67 1.77 5.06l110.01 123.34c1.24 1.39 2.97 2.22 4.83 2.33.13 0 .27.01.4.01 1.71 0 3.37-.63 4.66-1.78l36.79-32.83c1.39-1.24 2.22-2.97 2.33-4.83.11-1.85-.53-3.67-1.77-5.06l-17.96-20.13c124.58.1 186.86.13 186.86.13 1.78 0 3.49-.68 4.79-1.9 106.04-99.5 159.05-149.25 159.05-149.25 2.67-2.5 2.96-6.64.67-9.49zm-374.88 208.23-100.69-112.88 26.34-23.48 100.69 112.86zm207.59-61.61c-13.82 0-79.36-.04-196.6-.14l-50.08-56.13c42.54-42.83 79.85-64.77 110.97-65.22 16.67-.24 31.7 6.01 44.6 18.58 1.31 1.27 3.06 1.99 4.89 1.99h64.46c.29 0 .57-.02.86-.05 5.97-.74 10.5.28 13.86 3.11 5.06 4.27 6.58 11.83 7.04 16.03-.15 10.07-8.96 18.53-19.37 18.53h-94.14c-3.87 0-7 3.13-7 7s3.13 7 7 7h94.14c15.87 0 29.58-11.55 32.72-26.38l16.85-13.55 63.3-50.29c.06-.05.13-.1.19-.16 11.07-9.44 23.41-13.83 35.71-12.66 8.38.79 16.31 4.28 22.51 9.78-15.49 14.54-66.12 62.05-151.91 142.54zm-313.77-255.13 27.32 10.55c1.93 6.13 4.39 12.08 7.35 17.76l-11.85 26.79c-1.17 2.65-.59 5.74 1.45 7.78l23.07 23.07c2.04 2.04 5.14 2.62 7.78 1.45l26.79-11.85c5.66 2.95 11.6 5.42 17.75 7.37l10.56 27.3c1.04 2.7 3.64 4.48 6.53 4.48h32.63c2.89 0 5.49-1.78 6.53-4.48l10.55-27.32c6.13-1.93 12.08-4.39 17.76-7.35l26.79 11.85c2.65 1.17 5.74.59 7.78-1.45l23.07-23.07c2.05-2.05 2.62-5.14 1.45-7.78l-11.85-26.79c2.96-5.68 5.42-11.62 7.35-17.76l27.32-10.55c2.7-1.04 4.48-3.64 4.48-6.53v-32.63c0-2.89-1.78-5.49-4.48-6.53l-27.3-10.56c-1.95-6.15-4.42-12.1-7.37-17.75l11.85-26.79c1.17-2.65.59-5.74-1.45-7.78l-23.07-23.07c-2.04-2.04-5.14-2.62-7.78-1.45l-26.79 11.85c-5.68-2.96-11.62-5.42-17.76-7.35l-10.55-27.32c-1.04-2.7-3.64-4.48-6.53-4.48h-32.63c-2.89 0-5.49 1.78-6.53 4.48l-10.55 27.32c-6.1 1.92-12.05 4.38-17.75 7.35l-26.79-11.85c-2.65-1.17-5.74-.59-7.78 1.45l-23.07 23.07c-2.05 2.04-2.62 5.14-1.45 7.78l11.85 26.79c-2.96 5.67-5.42 11.62-7.35 17.75l-27.32 10.55c-2.7 1.04-4.48 3.64-4.48 6.53v32.63c0 2.89 1.78 5.49 4.48 6.53zm9.52-34.36 26.05-10.06c2.06-.8 3.63-2.52 4.22-4.65 2.07-7.4 5.02-14.53 8.77-21.18 1.09-1.92 1.2-4.25.3-6.27l-11.3-25.54 16.29-16.29 25.55 11.3c2.02.89 4.34.78 6.26-.3 6.71-3.77 13.84-6.72 21.19-8.77 2.13-.59 3.85-2.16 4.65-4.22l10.06-26.05h23.02l10.06 26.05c.8 2.06 2.52 3.63 4.65 4.22 7.4 2.07 14.53 5.02 21.18 8.77 1.93 1.09 4.25 1.2 6.27.3l25.54-11.3 16.29 16.29-11.3 25.54c-.89 2.02-.78 4.35.3 6.27 3.73 6.62 6.7 13.75 8.8 21.2.6 2.12 2.16 3.83 4.21 4.63l26.02 10.06v23.03l-26.05 10.06c-2.06.8-3.63 2.52-4.22 4.65-2.07 7.4-5.02 14.53-8.77 21.18-1.09 1.93-1.2 4.25-.3 6.27l11.3 25.54-16.29 16.29-25.54-11.3c-2.02-.89-4.35-.78-6.27.3-6.65 3.75-13.77 6.7-21.18 8.77-2.13.59-3.85 2.16-4.65 4.22l-10.06 26.05h-23.03l-10.06-26.02c-.79-2.05-2.51-3.61-4.63-4.21-7.44-2.1-14.58-5.07-21.2-8.8-1.93-1.08-4.25-1.2-6.27-.3l-25.54 11.3-16.29-16.29 11.3-25.54c.89-2.02.78-4.35-.3-6.27-3.75-6.65-6.7-13.78-8.77-21.18-.59-2.13-2.16-3.85-4.22-4.65l-26.05-10.06v-23.02zm123.56 78.62c37 0 67.1-30.1 67.1-67.1s-30.1-67.12-67.1-67.12-67.12 30.11-67.12 67.12 30.11 67.1 67.12 67.1zm0-120.22c29.28 0 53.09 23.83 53.09 53.12s-23.82 53.09-53.09 53.09-53.12-23.82-53.12-53.09 23.83-53.12 53.12-53.12zm177.86 19.82 15.7 6.09c1.03 3.06 2.29 6.07 3.75 9l-6.82 15.41c-1.17 2.65-.59 5.74 1.46 7.79l14.26 14.23c2.04 2.04 5.13 2.61 7.77 1.45l15.4-6.79c2.92 1.46 5.93 2.72 9.01 3.75l6.06 15.69c1.04 2.7 3.64 4.48 6.53 4.48h20.15c2.89 0 5.48-1.78 6.53-4.47l6.09-15.7c3.06-1.04 6.07-2.29 9-3.75l15.41 6.8c2.65 1.17 5.73.59 7.78-1.46l14.23-14.23c2.04-2.04 2.62-5.13 1.46-7.78l-6.79-15.41c1.44-2.89 2.68-5.9 3.73-9.01l15.69-6.09c2.69-1.04 4.47-3.64 4.47-6.53v-20.13c0-2.89-1.77-5.48-4.47-6.53l-15.69-6.09c-1.04-3.08-2.28-6.09-3.73-9l6.8-15.41c1.17-2.64.59-5.73-1.45-7.77l-14.23-14.26c-2.04-2.05-5.14-2.63-7.79-1.46l-15.41 6.82c-2.93-1.46-5.94-2.71-9-3.75l-6.09-15.7c-1.05-2.69-3.64-4.47-6.53-4.47h-20.15c-2.89 0-5.49 1.78-6.53 4.48l-6.06 15.69c-3.07 1.04-6.08 2.29-9 3.75l-15.4-6.81c-2.65-1.17-5.74-.59-7.78 1.45l-14.26 14.26c-2.05 2.05-2.62 5.14-1.45 7.79l6.81 15.4c-1.45 2.91-2.71 5.92-3.75 9.01l-15.7 6.09c-2.69 1.04-4.47 3.64-4.47 6.53v20.13c0 2.89 1.77 5.48 4.47 6.53zm9.53-21.86 14.38-5.58c2.05-.8 3.61-2.51 4.21-4.63 1.23-4.35 2.97-8.55 5.2-12.49 1.09-1.93 1.2-4.25.31-6.28l-6.25-14.12 7.47-7.47 14.12 6.25c2.02.9 4.35.78 6.28-.31 3.96-2.24 8.16-3.98 12.47-5.19 2.13-.59 3.85-2.16 4.64-4.22l5.55-14.37h10.56l5.58 14.38c.8 2.05 2.51 3.61 4.63 4.21 4.3 1.21 8.51 2.96 12.5 5.21 1.92 1.08 4.24 1.19 6.26.3l14.12-6.25 7.45 7.47-6.23 14.13c-.89 2.02-.78 4.33.3 6.25 2.21 3.93 3.95 8.14 5.18 12.5.6 2.12 2.15 3.83 4.21 4.63l14.38 5.58v10.54l-14.38 5.58c-2.05.8-3.61 2.51-4.21 4.63-1.24 4.42-2.98 8.62-5.17 12.48-1.09 1.92-1.2 4.25-.31 6.27l6.23 14.12-7.45 7.45-14.12-6.23c-2.02-.89-4.33-.78-6.25.3-4 2.24-8.2 4-12.5 5.21-2.12.6-3.83 2.15-4.63 4.21l-5.58 14.38h-10.56l-5.55-14.37c-.8-2.06-2.52-3.62-4.64-4.22-4.32-1.21-8.52-2.96-12.47-5.19-1.92-1.09-4.25-1.2-6.27-.31l-14.13 6.23-7.47-7.45 6.25-14.12c.89-2.02.78-4.34-.3-6.26-2.24-4-3.99-8.2-5.21-12.5-.6-2.12-2.15-3.83-4.21-4.63l-14.38-5.58v-10.54zm73.67 49.41c24.34 0 44.14-19.8 44.14-44.14s-19.8-44.14-44.14-44.14-44.14 19.8-44.14 44.14 19.8 44.14 44.14 44.14zm0-74.27c16.61 0 30.13 13.52 30.13 30.13s-13.52 30.13-30.13 30.13-30.13-13.52-30.13-30.13 13.52-30.13 30.13-30.13zm-123.45 139.4 4.52 10.24c-.77 1.62-1.46 3.29-2.07 4.99l-10.44 4.04c-2.7 1.04-4.47 3.64-4.47 6.53v14.49c0 2.89 1.78 5.49 4.47 6.53l10.44 4.04c.61 1.7 1.3 3.37 2.07 4.99l-4.52 10.24c-1.17 2.64-.59 5.73 1.45 7.78l10.23 10.23c2.04 2.04 5.13 2.62 7.78 1.45l10.22-4.51c1.63.78 3.31 1.48 5.02 2.09l4.03 10.42c1.04 2.7 3.64 4.47 6.53 4.47h14.48c2.89 0 5.49-1.78 6.53-4.47l4.03-10.42c1.71-.61 3.39-1.3 5.02-2.09l10.22 4.51c2.64 1.17 5.73.59 7.78-1.45l10.23-10.23c2.04-2.04 2.62-5.13 1.45-7.78l-4.51-10.22c.78-1.63 1.48-3.31 2.08-5.02l10.42-4.03c2.7-1.04 4.47-3.64 4.47-6.53v-14.49c0-2.89-1.78-5.49-4.47-6.53l-10.42-4.03c-.61-1.71-1.3-3.39-2.08-5.02l4.51-10.22c1.17-2.64.59-5.73-1.45-7.78l-10.23-10.23c-2.04-2.04-5.13-2.62-7.78-1.45l-10.22 4.51c-1.62-.77-3.29-1.46-5.01-2.08l-4.04-10.43c-1.04-2.7-3.64-4.47-6.53-4.47h-14.48c-2.89 0-5.49 1.78-6.53 4.47l-4.04 10.44c-1.73.62-3.4 1.31-5.01 2.07l-10.22-4.51c-2.64-1.17-5.73-.59-7.78 1.45l-10.23 10.23c-2.04 2.04-2.62 5.13-1.45 7.78zm14.81 22.5c.87-3.02 2.07-5.92 3.58-8.61 1.07-1.92 1.18-4.23.29-6.24l-3.93-8.91 3.45-3.45 8.91 3.93c2.03.89 4.36.78 6.28-.32 2.58-1.46 5.46-2.66 8.57-3.56 2.1-.61 3.8-2.16 4.59-4.2l3.51-9.08h4.89l3.51 9.08c.79 2.05 2.5 3.6 4.61 4.21 3.07.88 5.95 2.07 8.56 3.55 1.93 1.09 4.26 1.21 6.28.32l8.91-3.93 3.45 3.45-3.93 8.91c-.89 2.03-.78 4.36.32 6.28 1.51 2.67 2.71 5.54 3.54 8.52.6 2.12 2.16 3.85 4.21 4.64l9.08 3.51v4.89l-9.08 3.51c-2.06.8-3.62 2.52-4.21 4.64-.84 2.99-2.03 5.86-3.54 8.52-1.09 1.93-1.21 4.26-.32 6.28l3.93 8.91-3.45 3.45-8.91-3.93c-2.03-.89-4.36-.78-6.28.32-2.69 1.53-5.55 2.72-8.51 3.54-2.13.59-3.86 2.16-4.66 4.22l-3.51 9.08h-4.89l-3.51-9.08c-.8-2.06-2.52-3.62-4.64-4.21-2.99-.84-5.86-2.03-8.52-3.54-1.93-1.09-4.26-1.21-6.28-.32l-8.91 3.93-3.45-3.45 3.93-8.91c.89-2.01.78-4.32-.29-6.24-1.5-2.69-2.71-5.59-3.58-8.61-.61-2.1-2.16-3.8-4.2-4.59l-9.08-3.51v-4.89l9.08-3.51c2.04-.79 3.59-2.49 4.2-4.59zm37.72 41.32c16.96 0 30.76-13.8 30.76-30.76s-13.8-30.78-30.76-30.78-30.78 13.81-30.78 30.78 13.81 30.76 30.78 30.76zm0-47.54c9.24 0 16.75 7.53 16.75 16.78s-7.52 16.75-16.75 16.75-16.78-7.51-16.78-16.75 7.53-16.78 16.78-16.78zm-225-69.74c-2.73-2.73-2.73-7.17 0-9.9s7.17-2.73 9.9 0l14.33 14.33 35.58-35.56c2.74-2.73 7.17-2.73 9.9 0 2.73 2.74 2.73 7.17 0 9.9l-40.54 40.51c-1.37 1.37-3.16 2.05-4.95 2.05s-3.58-.68-4.95-2.05l-19.28-19.28z"/></svg>