<?xml version="1.0" encoding="utf-8"?>
<!-- Generator: Adobe Illustrator 27.5.0, SVG Export Plug-In . SVG Version: 6.00 Build 0)  -->
<svg version="1.1" id="Layer_1" xmlns="http://www.w3.org/2000/svg" xmlns:xlink="http://www.w3.org/1999/xlink" x="0px" y="0px"
	 viewBox="0 0 491.5 491.5" style="enable-background:new 0 0 491.5 491.5;" xml:space="preserve">
<g id="Layer_x5F_1">
	<g id="_390107280">
		<g id="_390107760">
			<path d="M222.8,343.1h-45.6c-2.7,0-4.9-2.2-4.9-4.9v-16.1c-2.2-0.8-4.5-1.7-6.7-2.8l-11.4,11.4c-1.9,1.9-5.1,1.9-7,0L115,298.5
				c-1.9-1.9-1.9-5.1,0-7l11.4-11.4c-1-2.2-1.9-4.4-2.8-6.7h-16.1c-2.7,0-4.9-2.2-4.9-4.9v-45.6c0-2.7,2.2-4.9,4.9-4.9h16.1
				c0.8-2.2,1.7-4.5,2.8-6.7L115,199.9c-0.9-0.9-1.4-2.2-1.4-3.5c0-1.3,0.5-2.6,1.4-3.5l32.2-32.2c1.9-1.9,5.1-1.9,7,0l11.4,11.4
				c2.2-1,4.4-1.9,6.7-2.8v-16.1c0-2.7,2.2-4.9,4.9-4.9h45.6c2.7,0,4.9,2.2,4.9,4.9v16.1c2.2,0.8,4.5,1.7,6.7,2.8l11.4-11.4
				c0.9-0.9,2.2-1.4,3.5-1.4s2.6,0.5,3.5,1.4l32.3,32.3c1.9,1.9,1.9,5.1,0,7l-11.4,11.3c1,2.2,1.9,4.4,2.8,6.7h16.1
				c2.7,0,4.9,2.2,4.9,4.9v45.6c0,2.7-2.2,4.9-4.9,4.9h-16.1c-0.8,2.2-1.7,4.5-2.8,6.7l11.4,11.4c1.9,1.9,1.9,5.1,0,7l-32.3,32.3
				c-1.9,1.9-5.1,1.9-7,0l-11.3-11.5c-2.2,1-4.4,1.9-6.7,2.8v16.1C227.7,341,225.5,343.1,222.8,343.1z M182.1,333.3h35.8v-14.7
				c0-2.2,1.4-4,3.5-4.7c4-1.3,8-2.9,11.8-4.9c1.9-1,4.2-0.6,5.8,0.9l10.4,10.4l25.3-25.3l-10.4-10.4c-1.5-1.5-1.9-3.8-0.9-5.8
				c2-3.8,3.6-7.7,4.9-11.8c0.6-2,2.6-3.5,4.7-3.5h14.7v-35.8H273c-2.2,0-4-1.4-4.7-3.5c-1.3-4-2.9-8-4.9-11.8
				c-1-1.9-0.6-4.2,0.9-5.8l10.4-10.4l-25.3-25.3L239,181.3c-1.5,1.5-3.8,1.9-5.8,0.9c-3.8-2-7.7-3.6-11.8-4.9
				c-2-0.6-3.5-2.6-3.5-4.7v-14.7h-35.8V173c0,2.2-1.4,4-3.5,4.7c-4,1.3-8,2.9-11.8,4.9c-1.9,1-4.2,0.6-5.8-0.9l-10.4-10.4
				l-25.3,25.3l10.4,10.4c1.5,1.5,1.9,3.8,0.9,5.8c-2,3.8-3.6,7.7-4.9,11.8c-0.6,2-2.6,3.5-4.7,3.5h-14.7v35.8H127
				c2.2,0,4,1.4,4.7,3.5c1.3,4,2.9,8,4.9,11.8c1,1.9,0.6,4.2-0.9,5.8l-10.4,10.4l25.3,25.3l10.4-10.4c1.5-1.5,3.8-1.9,5.8-0.9
				c3.8,2,7.7,3.6,11.8,4.9c2,0.6,3.5,2.6,3.5,4.7V333.3L182.1,333.3z"/>
		</g>
		<g id="_390108144">
			<path d="M200,298.8c-29.2,0-53-23.8-53-53s23.8-53,53-53s53,23.8,53,53S229.2,298.8,200,298.8z M200,202.6
				c-23.8,0-43.2,19.4-43.2,43.2S176.1,289,200,289s43.2-19.4,43.2-43.2S223.8,202.6,200,202.6z"/>
		</g>
		<g id="_390107736">
			<path d="M356.4,200.9c-18,0-32.6-14.6-32.6-32.6s14.6-32.6,32.6-32.6s32.6,14.6,32.6,32.6S374.3,200.9,356.4,200.9z M356.4,145.6
				c-12.5,0-22.7,10.2-22.7,22.7s10.2,22.7,22.7,22.7s22.7-10.2,22.7-22.7S368.9,145.6,356.4,145.6z"/>
		</g>
		<g id="_390107448">
			<path d="M356.4,278.3c-18,0-32.6-14.6-32.6-32.6s14.6-32.6,32.6-32.6s32.6,14.6,32.6,32.6S374.3,278.3,356.4,278.3z M356.4,223
				c-12.5,0-22.7,10.2-22.7,22.7c0,12.5,10.2,22.7,22.7,22.7s22.7-10.2,22.7-22.7C379.1,233.2,368.9,223,356.4,223z"/>
		</g>
		<g id="_390108048">
			<path d="M356.4,355.7c-18,0-32.6-14.6-32.6-32.6s14.6-32.6,32.6-32.6s32.6,14.6,32.6,32.6S374.3,355.7,356.4,355.7z M356.4,300.4
				c-12.5,0-22.7,10.2-22.7,22.7s10.2,22.7,22.7,22.7s22.7-10.2,22.7-22.7S368.9,300.4,356.4,300.4z"/>
		</g>
		<g id="_390107880">
			<path d="M292.4,250.6c-2.7,0-4.9-2.2-4.9-4.9s2.2-4.9,4.9-4.9h36.2c2.7,0,4.9,2.2,4.9,4.9s-2.2,4.9-4.9,4.9H292.4z"/>
		</g>
		<g id="_390107112">
			<path d="M355.7,223.1c-0.1,0-0.1,0-0.1,0c-2.7-0.1-4.9-2.4-4.8-5.1l0.6-22.1c0.1-2.7,2.4-4.9,5.1-4.8c2.7,0.1,4.9,2.4,4.8,5.1
				l-0.6,22.1C360.5,220.9,358.4,223.1,355.7,223.1z"/>
		</g>
		<g id="_390107016">
			<path d="M355.7,300.4c-0.1,0-0.1,0-0.1,0c-2.7-0.1-4.9-2.4-4.8-5.1l0.6-22.1c0.1-2.7,2.4-4.9,5.1-4.8s4.9,2.4,4.8,5.1l-0.6,22.1
				C360.5,298.3,358.4,300.4,355.7,300.4z"/>
		</g>
		<g id="_390107304">
			<path d="M353,180.8c-1.3,0-2.6-0.5-3.5-1.4l-8.4-8.4c-1.9-1.9-1.9-5.1,0-7s5.1-1.9,7,0l4.9,4.9l11.7-11.7c1.9-1.9,5.1-1.9,7,0
				c1.9,1.9,1.9,5.1,0,7l-15.2,15.2C355.5,180.3,354.3,180.8,353,180.8z"/>
		</g>
		<g id="_390106680">
			<path d="M353,258.3c-1.3,0-2.6-0.5-3.5-1.4l-8.4-8.4c-1.9-1.9-1.9-5.1,0-7s5.1-1.9,7,0l4.9,4.9l11.7-11.7c1.9-1.9,5.1-1.9,7,0
				c1.9,1.9,1.9,5.1,0,7l-15.2,15.2C355.5,257.8,354.3,258.3,353,258.3z"/>
		</g>
		<g id="_390106896">
			<path d="M353,335.6c-1.3,0-2.6-0.5-3.5-1.4l-8.4-8.4c-1.9-1.9-1.9-5.1,0-7c1.9-1.9,5.1-1.9,7,0l4.9,4.9l11.7-11.7
				c1.9-1.9,5.1-1.9,7,0c1.9,1.9,1.9,5.1,0,7l-15.2,15.2C355.5,335.1,354.3,335.6,353,335.6z"/>
		</g>
	</g>
</g>
<g>
	<path d="M245.8,485.8c-32.4,0-63.8-6.3-93.4-18.9c-28.6-12.1-54.2-29.4-76.3-51.4c-22-22-39.3-47.7-51.4-76.3
		c-12.5-29.6-18.9-61-18.9-93.4s6.3-63.8,18.9-93.4C36.7,123.7,54,98.1,76,76c22-22,47.7-39.3,76.3-51.4
		c29.6-12.5,61-18.9,93.4-18.9s63.8,6.3,93.4,18.9C367.7,36.7,393.4,54,415.5,76c22,22,39.3,47.7,51.4,76.3
		c12.5,29.6,18.9,61,18.9,93.4s-6.3,63.8-18.9,93.4c-12.1,28.6-29.4,54.2-51.4,76.3c-22,22-47.7,39.3-76.3,51.4
		C309.6,479.4,278.1,485.8,245.8,485.8z M245.8,15.8c-126.8,0-230,103.2-230,230s103.2,230,230,230s230-103.2,230-230
		S372.6,15.8,245.8,15.8z"/>
</g>
</svg>
