<?xml version="1.0" encoding="utf-8"?>
<!-- Generator: Adobe Illustrator 27.5.0, SVG Export Plug-In . SVG Version: 6.00 Build 0)  -->
<svg version="1.1" id="Layer_1" xmlns="http://www.w3.org/2000/svg" xmlns:xlink="http://www.w3.org/1999/xlink" x="0px" y="0px"
	 viewBox="0 0 200 200" style="enable-background:new 0 0 200 200;" xml:space="preserve">
<g>
	<path d="M133.091,61.762c-0.888-1.107-1.851-2.183-3-3.342c-0.991-0.991-2.085-1.977-3.251-2.931
		c-0.05-0.041-0.103-0.078-0.159-0.112c-6.41-5.164-14.069-8.34-22.138-9.186c-1.262-0.154-2.673-0.236-4.462-0.261
		c-1.601,0-3.17,0.088-4.646,0.258c-8.115,0.854-15.805,4.054-22.237,9.256c-0.036,0.029-0.071,0.06-0.104,0.093
		c-2.256,1.807-4.352,3.907-6.231,6.243c-0.026,0.033-0.052,0.067-0.075,0.104c-5.124,6.341-8.3,13.981-9.189,22.124
		c-0.168,1.768-0.247,3.221-0.247,4.572c0,1.541,0.083,3.002,0.252,4.463c0.001,0.026,0.003,0.054,0.006,0.081
		c0.919,8.934,4.628,17.232,10.768,24.043c0.289,0.296,0.571,0.66,0.831,1.067c1.914,3.068,3.193,5.524,4.151,7.975
		c1.318,3.287,1.584,6.764,1.865,10.444l0.021,0.27c0.292,4.224,0.233,8.547,0.176,12.728l-0.02,1.447
		c-0.061,4.272,1.902,7.356,5.632,8.898c0.206,0.093,0.39,0.19,0.556,0.295c1.15,9.149,9.089,16.208,18.371,16.208
		c0.014,0,0.028,0,0.042,0c9.435,0,17.232-6.898,18.41-16.155c0.057-0.033,0.119-0.066,0.185-0.101
		c3.846-2.046,5.795-5.371,5.795-9.884l0.001-3.144c0.001-4.148,0.003-8.3-0.021-12.453c-0.047-4.289,1.01-8.193,3.279-12.019
		c0.052-0.078,0.103-0.157,0.129-0.206c1.2-2.013,2.698-4.052,4.457-6.069c5.727-6.638,9.238-14.709,10.155-23.331
		c0.151-1.339,0.238-2.758,0.259-4.238c0-1.836-0.092-3.438-0.278-4.856C141.516,75.891,138.305,68.184,133.091,61.762z
		 M139.408,92.813c-0.853,8.021-4.119,15.524-9.439,21.691c-1.872,2.146-3.476,4.332-4.816,6.577
		c-0.054,0.081-0.107,0.163-0.133,0.215c-2.509,4.23-3.703,8.646-3.65,13.493c0.024,4.14,0.022,8.284,0.021,12.426l-0.001,3.146
		c0,3.363-1.376,5.73-4.187,7.226c-0.485,0.25-0.888,0.525-1.231,0.842c-0.273,0.252-0.442,0.597-0.476,0.967
		c-0.72,7.909-7.527,14.105-15.499,14.105c-0.012,0-0.023,0-0.035,0c-7.968,0-14.755-6.206-15.457-14.142
		c-0.034-0.379-0.21-0.731-0.493-0.985c-0.488-0.438-1.058-0.801-1.788-1.129c-2.652-1.098-3.867-3.036-3.823-6.105l0.019-1.446
		c0.058-4.242,0.118-8.628-0.184-12.986l-0.021-0.28c-0.286-3.746-0.582-7.618-2.067-11.322c-1.024-2.617-2.379-5.225-4.403-8.47
		c-0.378-0.593-0.789-1.118-1.18-1.518c-5.656-6.275-9.101-13.963-9.965-22.234c-0.001-0.039-0.005-0.078-0.009-0.117
		c-0.161-1.367-0.24-2.736-0.24-4.185c0-1.255,0.074-2.617,0.231-4.267c0.828-7.59,3.807-14.726,8.613-20.637
		c0.029-0.036,0.056-0.073,0.081-0.111c1.753-2.165,3.703-4.106,5.798-5.771c0.041-0.032,0.081-0.067,0.118-0.104
		c5.958-4.785,13.063-7.729,20.571-8.519c1.378-0.159,2.831-0.24,4.297-0.24c1.658,0.022,2.967,0.099,4.144,0.242
		c7.571,0.793,14.736,3.781,20.72,8.642c0.047,0.038,0.096,0.073,0.147,0.104c1.04,0.858,2.016,1.74,2.942,2.667
		c1.02,1.029,1.914,2.027,2.742,3.06c4.853,5.977,7.838,13.139,8.637,20.749c0.173,1.327,0.257,2.801,0.257,4.484
		C139.631,90.24,139.55,91.561,139.408,92.813z"/>
	<path d="M100.03,40.64c1.276,0,2.483-0.485,3.399-1.365c0.962-0.925,1.492-2.168,1.492-3.502v-7.401
		c0.007-1.301-0.496-2.523-1.417-3.443c-0.902-0.901-2.094-1.402-3.365-1.415l-0.062-0.006c-0.051-0.005-0.107-0.007-0.154-0.007
		c-2.66,0.019-4.839,2.197-4.856,4.867v7.405c0,1.332,0.525,2.571,1.479,3.49C97.457,40.138,98.701,40.64,100.03,40.64z
		 M98.067,28.377c0.006-1.006,0.813-1.834,1.811-1.875l0.044,0.004c0.047,0.005,0.095,0.007,0.144,0.007c0.008,0,0.016,0,0.023,0
		c0.489,0,0.948,0.19,1.295,0.536c0.35,0.35,0.541,0.815,0.538,1.309c0,0.004,0,0.007,0,0.01v7.405c0,0.51-0.203,0.985-0.57,1.338
		c-0.355,0.342-0.824,0.529-1.393,0.529c-0.49,0-0.976-0.197-1.333-0.54c-0.365-0.352-0.559-0.811-0.559-1.327V28.377z"/>
	<path d="M165.066,88.499l-0.006-0.064c-0.013-1.266-0.51-2.455-1.406-3.357c-0.921-0.927-2.15-1.438-3.463-1.438l-7.391,0.012
		c-1.333,0-2.577,0.529-3.502,1.491c-0.88,0.916-1.365,2.123-1.365,3.399v0.072c0,1.259,0.502,2.502,1.377,3.411
		c0.916,0.954,2.156,1.479,3.49,1.479h7.405c2.666,0,4.85-2.179,4.867-4.857C165.072,88.598,165.07,88.549,165.066,88.499z
		 M160.205,90.505H152.8c-0.517,0-0.976-0.193-1.328-0.559c-0.343-0.356-0.54-0.842-0.54-1.38v-0.024
		c0-0.497,0.188-0.967,0.528-1.32c0.354-0.368,0.83-0.57,1.342-0.57l7.391-0.012c0.506,0,0.979,0.196,1.332,0.552
		c0.348,0.351,0.538,0.813,0.534,1.305c-0.001,0.05,0.002,0.099,0.006,0.148l0.004,0.047
		C162.031,89.697,161.207,90.505,160.205,90.505z"/>
	<path d="M47.2,83.64h-7.415c-2.661,0.017-4.84,2.195-4.858,4.856c0,0.05,0.002,0.099,0.006,0.148l0.006,0.064
		c0.012,1.272,0.513,2.465,1.416,3.368c0.914,0.914,2.126,1.416,3.408,1.416c0.01,0,0.021,0,0.031,0H47.2
		c1.333,0,2.576-0.529,3.502-1.491c0.88-0.917,1.364-2.124,1.364-3.472c0-1.277-0.485-2.484-1.365-3.4
		C49.778,84.169,48.534,83.64,47.2,83.64z M48.54,89.923c-0.354,0.367-0.83,0.57-1.34,0.57h-7.415c-0.004,0-0.008,0-0.012,0
		c-0.49,0-0.95-0.191-1.296-0.537c-0.35-0.35-0.541-0.814-0.537-1.309c0-0.05-0.002-0.099-0.006-0.148l-0.004-0.047
		c0.04-0.999,0.868-1.807,1.866-1.813H47.2c0.51,0,0.986,0.202,1.339,0.57c0.34,0.354,0.527,0.822,0.527,1.393
		C49.067,89.1,48.88,89.569,48.54,89.923z"/>
	<path d="M62.62,56.134c0.043,0,0.085,0,0.128-0.002c1.26-0.036,2.442-0.546,3.377-1.48c0.889-0.889,1.398-2.071,1.434-3.334
		c0.036-1.329-0.478-2.626-1.41-3.557l-5.236-5.236c-1.899-1.9-4.984-1.906-6.881-0.01l-0.093,0.094
		c-1.893,1.893-1.887,4.978,0.012,6.878c0,0,0,0,0,0l5.237,5.237C60.09,55.624,61.333,56.134,62.62,56.134z M56.064,44.727
		l0.093-0.094c0.723-0.723,1.906-0.718,2.636,0.013l5.237,5.237c0.352,0.351,0.545,0.845,0.531,1.352
		c-0.01,0.348-0.114,0.853-0.604,1.343c-0.441,0.442-0.948,0.546-1.291,0.557c-0.513,0.004-1.005-0.181-1.356-0.532l-5.236-5.236
		C55.343,46.635,55.338,45.453,56.064,44.727z"/>
	<path d="M145.965,42.524c-0.921-0.921-2.145-1.428-3.445-1.428c-1.301,0-2.525,0.507-3.445,1.428l-5.225,5.224
		c-0.957,0.958-1.475,2.283-1.421,3.621c0.036,1.229,0.545,2.394,1.481,3.33c0.878,0.877,2.04,1.39,3.277,1.444
		c0.064,0.002,0.129,0.004,0.194,0.004c1.286,0,2.531-0.513,3.443-1.425l5.224-5.225h0.001c0.92-0.921,1.427-2.145,1.427-3.445
		c0-1.301-0.507-2.524-1.428-3.444L145.965,42.524z M143.926,47.377l-5.223,5.224c-0.368,0.368-0.879,0.566-1.391,0.545
		c-0.48-0.021-0.936-0.223-1.33-0.616c-0.345-0.345-0.542-0.788-0.556-1.265c-0.021-0.52,0.177-1.028,0.544-1.396l5.225-5.224
		c0.354-0.354,0.824-0.549,1.324-0.549c0.499,0,0.969,0.194,1.324,0.549l0.084,0.084c0.354,0.354,0.549,0.824,0.549,1.323
		C144.476,46.553,144.281,47.022,143.926,47.377z"/>
	<path d="M116.741,72.245h-6.013c0.202-0.835,0.303-1.698,0.304-2.582c0.001-5.593-3.995-10.19-9.503-10.932
		c-3.192-0.427-6.395,0.525-8.791,2.62c-2.396,2.095-3.77,5.123-3.77,8.309c0,0.885,0.102,1.748,0.304,2.585h-6.013
		c-2.108,0-3.823,1.715-3.823,3.822v8.136c0,0.517,0.266,0.996,0.703,1.271c0.438,0.274,0.986,0.304,1.45,0.08
		c1.064-0.516,2.218-0.776,3.432-0.776c2.32,0,4.525,1,6.051,2.745c1.547,1.769,2.224,4.048,1.905,6.415
		c-0.539,4.001-3.883,6.903-7.955,6.903c-0.001,0-0.002,0-0.003,0c-1.212-0.001-2.366-0.262-3.43-0.776
		c-0.466-0.224-1.013-0.194-1.45,0.08c-0.438,0.274-0.703,0.754-0.703,1.271v8.135c0,2.108,1.715,3.823,3.823,3.823h33.482
		c2.108,0,3.823-1.715,3.823-3.823V76.067C120.564,73.96,118.849,72.245,116.741,72.245z M117.564,109.55
		c0,0.454-0.369,0.823-0.823,0.823H83.259c-0.454,0-0.823-0.369-0.823-0.823v-6.013c0.835,0.201,1.697,0.303,2.581,0.304
		c0.001,0,0.003,0,0.004,0c5.591,0,10.187-3.996,10.929-9.503c0.429-3.191-0.526-6.396-2.62-8.791
		c-2.095-2.396-5.123-3.77-8.309-3.77c-0.885,0-1.749,0.102-2.585,0.304v-6.014c0-0.453,0.369-0.822,0.823-0.822h8.135
		c0.516,0,0.996-0.266,1.271-0.703s0.305-0.985,0.08-1.45c-0.515-1.065-0.776-2.22-0.776-3.432c0-2.32,1-4.525,2.745-6.051
		c1.769-1.547,4.044-2.221,6.416-1.905c4.001,0.539,6.905,3.886,6.904,7.958c-0.001,1.212-0.262,2.365-0.776,3.43
		c-0.225,0.465-0.194,1.013,0.08,1.45c0.274,0.438,0.754,0.703,1.27,0.703h8.135c0.454,0,0.823,0.369,0.823,0.822V109.55z"/>
</g>
</svg>
