<svg version="1.2" xmlns="http://www.w3.org/2000/svg" viewBox="0 0 244 244" width="244" height="244">
	<title>testimonial-svg</title>
	<style>
		tspan { white-space:pre } 
		.s0 { fill: #ffffff } 
		.t1 { font-size: 24px;fill: #ffffff;font-weight: 400;font-family: "DejaVuSans", "DejaVu Sans" } 
	</style>
	<path class="s0" d="m116.6 242.8l-0.1 1.2-8.6-0.7 0.1-1.2 3.6 0.3 0.8-10.3 1.4 0.1-0.8 10.3z"/>
	<path class="s0" d="m98.8 230.1l-2.8 11.2-6.7-1.7 0.3-1.2 5.4 1.4 0.9-3.8-5-1.3 0.3-1.2 5 1.3 1-3.8-5.5-1.4 0.3-1.2z"/>
	<path class="s0" d="m72.9 230.6q-0.3 0.8 0.2 1.5 0.5 0.8 1.4 1.2 0.7 0.3 1.4 0.3 0.6 0 1.1-0.3 0.4-0.3 0.6-0.8 0.2-0.4 0.1-0.8 0-0.4-0.3-0.7-0.2-0.4-0.5-0.6-0.3-0.3-0.6-0.5l-0.9-0.8q-0.4-0.3-0.8-0.7-0.4-0.4-0.8-0.9-0.3-0.5-0.4-1.2-0.1-0.6 0.2-1.4 0.4-0.8 1.2-1.3 0.7-0.5 1.7-0.6 1.1 0 2.3 0.5 1.1 0.5 1.8 1.2 0.7 0.7 0.9 1.6 0.2 0.8-0.2 1.7l-1.3-0.5q0.2-0.6 0-1.2-0.2-0.5-0.6-1-0.5-0.4-1.1-0.6-0.8-0.4-1.4-0.4-0.7 0-1.3 0.3-0.5 0.3-0.7 0.9-0.3 0.5-0.1 1 0.2 0.4 0.5 0.8 0.4 0.4 0.9 0.8l1.2 1q1.1 0.9 1.5 1.8 0.5 1 0 2.1-0.4 0.9-1.1 1.3-0.8 0.5-1.8 0.5-1 0-2-0.4-1-0.4-1.7-1.2-0.6-0.7-0.8-1.5-0.2-0.8 0.1-1.6z"/>
	<path class="s0" d="m61.1 226.4l-0.7 1.1-7.3-4.6 0.7-1.1 3 1.9 5.5-8.7 1.2 0.8-5.5 8.7z"/>
	<path class="s0" d="m40.6 212.9l7.6-8.6 1 0.9-7.6 8.6z"/>
	<path class="s0" d="m30.6 203.1l-1-1.3 4.9-9.1-0.1-0.1-9.8 3-1.1-1.2 8.9-7.3 0.9 1-6.8 5.5v0.1l9.1-2.7 0.8 0.9-4.5 8.4h0.1l6.8-5.5 0.8 1z"/>
	<path class="s0" d="m4.2 157.5l11.2-2.8 0.3 1.3-7.3 8.3 0.1 0.1 8.7-2.2 0.4 1.4-11.2 2.8-0.3-1.3 7.2-8.4v-0.1l-8.8 2.2z"/>
	<path class="s0" d="m2.1 142.5l11.5-1 0.2 1.4-11.5 1z"/>
	<path fill-rule="evenodd" class="s0" d="m13.4 127.3l-0.1 1.4-11.2-5.1 0.1-1.4 11.9-3.3-0.2 1.4-3.3 0.9v-0.6l-1.2-0.1-0.1 1.1-5.3 1.4v0.1l5 2.2v1.1l1.2 0.1v-0.6zm-2.8-6.1l-1.2 0.4-0.3 3.7 1.2 0.6z"/>
	<path class="s0" d="m15.8 109.2l-11.2-2.7 0.4-1.3 10 2.4 1.2-5.2 1.2 0.3z"/>
	<path class="s0" d="m27.9 54.1l1 0.7-2.8 4.1-1.1-0.7z"/>
	<path class="s0" d="m62 17.2l-0.5-1.1 7.6-4.1 0.6 1.1-3.2 1.7 4.8 9.1-1.3 0.7-4.7-9.1z"/>
	<path class="s0" d="m83.5 18.5l-3.6-11 3.7-1.2q1.3-0.4 2.2-0.3 1 0.2 1.6 0.8 0.7 0.6 1 1.6 0.3 1 0.2 1.8-0.2 0.9-0.8 1.6-0.7 0.7-2 1.1l-3 1-0.4-1.2 3-0.9q0.9-0.3 1.3-0.8 0.5-0.4 0.5-1 0.1-0.5-0.1-1.2-0.2-0.6-0.6-1-0.4-0.4-1.1-0.5-0.6-0.1-1.5 0.2l-2.3 0.8 3.3 9.7zm3.5-6.6l4.3 4-1.5 0.5-4.3-4z"/>
	<path class="s0" d="m106.1 1.1l1.4-0.3 1.2 7.6q0.2 1.1-0.2 2.1-0.4 1-1.3 1.7-0.9 0.7-2.3 0.9-1.3 0.3-2.4-0.1-1.1-0.4-1.8-1.2-0.7-0.8-0.8-2l-1.3-7.5 1.4-0.2 1.2 7.4q0.2 0.8 0.6 1.4 0.5 0.6 1.2 0.8 0.8 0.3 1.7 0.1 1-0.1 1.6-0.6 0.6-0.5 0.9-1.2 0.2-0.7 0.1-1.5z"/>
	<path class="s0" d="m124.7 3q-0.1-0.8-0.8-1.3-0.7-0.5-1.8-0.5-0.7 0-1.3 0.3-0.6 0.2-0.9 0.7-0.3 0.4-0.3 1 0 0.4 0.2 0.7 0.2 0.4 0.6 0.6 0.3 0.2 0.7 0.3 0.4 0.2 0.7 0.3l1.2 0.3q0.4 0.1 1 0.3 0.5 0.2 1 0.6 0.6 0.3 0.9 0.9 0.3 0.5 0.3 1.4 0 0.9-0.5 1.6-0.5 0.8-1.4 1.2-0.9 0.5-2.2 0.5-1.3 0-2.2-0.4-0.9-0.4-1.4-1.1-0.5-0.7-0.6-1.7h1.4q0.1 0.7 0.5 1.1 0.4 0.4 1 0.6 0.6 0.2 1.3 0.2 0.8 0 1.4-0.2 0.6-0.3 1-0.8 0.4-0.4 0.4-1.1 0-0.5-0.4-0.9-0.3-0.4-0.8-0.6-0.5-0.2-1.1-0.4l-1.4-0.4q-1.4-0.4-2.2-1.1-0.8-0.7-0.8-1.9 0-0.9 0.5-1.7 0.6-0.7 1.5-1.1 0.9-0.4 2-0.4 1.1 0 1.9 0.4 0.9 0.4 1.4 1.1 0.5 0.7 0.6 1.5z"/>
	<path class="s0" d="m137.1 2.2l0.2-1.2 8.6 1.4-0.2 1.2-3.6-0.6-1.7 10.1-1.3-0.2 1.6-10.1z"/>
	<path class="s0" d="m153.8 16.2l3.7-10.9 6.6 2.2-0.4 1.2-5.3-1.8-1.2 3.7 4.9 1.7-0.4 1.1-4.9-1.6-1.2 3.7 5.3 1.8-0.4 1.2z"/>
	<path fill-rule="evenodd" class="s0" d="m172.7 23.9l-3.1-1.6 5.3-10.2 3.3 1.7q1.5 0.8 2.2 1.9 0.8 1.2 0.7 2.6 0 1.5-0.8 3-0.9 1.6-2 2.5-1.2 0.8-2.6 0.9-1.4 0-3-0.8zm-1.3-2.1l1.8 1q1.3 0.6 2.4 0.6 1.1-0.1 1.9-0.8 0.9-0.6 1.6-1.9 0.6-1.2 0.7-2.3 0.1-1.1-0.5-2-0.5-0.9-1.7-1.6l-2-1z"/>
	<path fill-rule="evenodd" class="s0" d="m199.1 42.8l8.3-7.9 2.8 2.9q0.9 0.8 1.1 1.7 0.3 0.8 0 1.6-0.2 0.7-0.8 1.3-0.6 0.5-1.1 0.7-0.5 0.1-1 0-0.5-0.1-1-0.4v0.1q0.3 0.4 0.4 1.1 0.2 0.6-0.1 1.3-0.2 0.7-0.8 1.3-0.6 0.6-1.4 0.8-0.8 0.2-1.7-0.1-0.9-0.4-1.8-1.4zm1.9 0.2l1.9 2q0.9 1 1.7 1 0.8 0.1 1.3-0.5 0.5-0.4 0.6-0.9 0.2-0.6 0-1.2-0.2-0.6-0.7-1.1l-1.9-2.1zm3.7-3.6l1.8 1.9q0.5 0.4 1 0.6 0.5 0.2 1.1 0.1 0.5-0.1 0.9-0.5 0.6-0.5 0.6-1.3 0-0.7-0.8-1.6l-1.8-1.9z"/>
	<path class="s0" d="m219.7 48.8l0.9 1.3-2.6 5.7 0.1 0.1 6.2-0.4 0.9 1.3-7.9 0.4-3.9 2.7-0.8-1.2 3.9-2.7z"/>
	<path class="s0" d="m237.2 93.8l-0.4-1.3q0.5-0.3 0.9-0.7 0.3-0.4 0.5-0.9 0.2-0.5 0.2-1.1 0-0.5-0.2-1.1-0.3-1-1-1.7-0.8-0.6-1.9-0.8-1.1-0.2-2.6 0.2-1.4 0.4-2.2 1.2-0.9 0.7-1.2 1.7-0.2 1 0.1 2 0.1 0.5 0.4 1 0.3 0.4 0.7 0.8 0.5 0.3 1 0.5 0.5 0.1 1.1 0.1l0.4 1.3q-0.9 0.1-1.7-0.1-0.8-0.2-1.4-0.6-0.6-0.5-1.1-1.2-0.5-0.6-0.7-1.5-0.4-1.4 0-2.7 0.3-1.3 1.4-2.3 1.1-1 2.9-1.5 1.7-0.5 3.2-0.2 1.4 0.2 2.5 1.1 1 0.9 1.4 2.3 0.2 0.9 0.2 1.7 0 0.8-0.3 1.5-0.3 0.8-0.9 1.3-0.5 0.6-1.3 1z"/>
	<path class="s0" d="m231.4 106.3l11.5-1.4 0.2 1.4-10.3 1.3 0.7 5.3-1.2 0.1z"/>
	<path class="s0" d="m243.9 127.7l-11.5-0.5 0.1-1.4 11.5 0.5z"/>
	<path class="s0" d="m231 140.9l11.3 2.3-1.4 6.8-1.2-0.2 1.1-5.5-3.8-0.8-1.1 5.1-1.2-0.2 1-5.1-3.8-0.8-1.1 5.5-1.2-0.2z"/>
	<path class="s0" d="m234.3 170.2l-10.8-4.1 0.5-1.3 10.7-2.6v-0.1l-8.4-3.2 0.5-1.4 10.7 4.1-0.4 1.3-10.8 2.7v0.1l8.5 3.2z"/>
	<path class="s0" d="m228.8 178.7l1.1 0.6-4.3 7.5-1.1-0.6 1.8-3.2-8.9-5.1 0.7-1.2 8.9 5.1z"/>
	<path class="s0" d="m212.7 199.4q0.7 0.5 1.5 0.2 0.8-0.2 1.5-1 0.5-0.6 0.6-1.2 0.2-0.6 0.1-1.1-0.2-0.6-0.6-0.9-0.3-0.3-0.7-0.3-0.4-0.1-0.8 0.1-0.4 0.1-0.8 0.3-0.3 0.2-0.6 0.4l-1 0.7q-0.3 0.3-0.9 0.6-0.5 0.3-1.1 0.4-0.6 0.2-1.2 0.1-0.7-0.1-1.3-0.6-0.7-0.6-1-1.4-0.3-0.9 0-1.9 0.2-1 1.1-2 0.8-1 1.6-1.4 0.9-0.5 1.8-0.4 0.9 0 1.7 0.6l-1 1.1q-0.5-0.4-1.1-0.3-0.5 0-1.1 0.3-0.5 0.4-0.9 0.9-0.6 0.6-0.8 1.3-0.2 0.6 0 1.2 0.1 0.6 0.6 1 0.4 0.3 0.9 0.3 0.5 0 1-0.3 0.5-0.2 1-0.6l1.2-0.8q1.2-0.8 2.3-1 1-0.1 1.9 0.6 0.8 0.6 1 1.5 0.2 0.8 0 1.8-0.3 0.9-1 1.8-0.7 0.9-1.5 1.3-0.9 0.4-1.8 0.4-0.8-0.1-1.5-0.6z"/>
	<path class="s0" d="m165.2 229.8l-0.5-1.2 4.6-1.9 0.5 1.1z"/>
	<text id="O" style="transform: matrix(.354,.614,-0.614,.354,12.664,174.555)" >
		<tspan x="0" y="0" class="t1">O
</tspan>
	</text>
</svg>