<?xml version="1.0" encoding="utf-8"?>
<!-- Generator: Adobe Illustrator 27.5.0, SVG Export Plug-In . SVG Version: 6.00 Build 0)  -->
<svg version="1.1" id="Layer_1" xmlns="http://www.w3.org/2000/svg" xmlns:xlink="http://www.w3.org/1999/xlink" x="0px" y="0px"
	 viewBox="0 0 4000 4000" style="enable-background:new 0 0 4000 4000;" xml:space="preserve">
<rect style="fill:#FFFFFF;" width="4000" height="4000"/>
<g>
	<g>
		<path style="fill:#231F20;" d="M2556.576,1620.442c6.96,0,12.479,5.52,12.479,12.479v3.359
			c12.958,1.92,24.477,5.759,34.795,11.519c4.56,2.64,8.639,7.199,8.639,14.398c0,9.119-7.2,16.078-16.318,16.078
			c-2.879,0-5.76-0.72-8.399-2.16c-6.719-3.599-13.438-6.479-19.917-8.159v36.476c36.475,9.839,52.073,24.717,52.073,51.594
			c0,26.876-20.637,44.155-50.873,47.514v12.719c0,6.959-5.519,12.478-12.479,12.478c-6.959,0-12.479-5.519-12.479-12.478V1803.3
			c-17.038-2.16-33.116-8.159-47.274-16.798c-5.039-3.12-8.158-7.919-8.158-14.398c0-9.359,7.199-16.318,16.558-16.318
			c3.119,0,6.479,1.2,9.358,3.119c10.079,6.479,19.678,11.039,30.716,13.438v-38.155c-34.555-9.359-51.593-22.557-51.593-51.114
			c0-26.396,20.157-44.154,50.393-47.274v-2.88C2544.097,1625.962,2549.617,1620.442,2556.576,1620.442z M2545.297,1698.193v-32.396
			c-11.518,1.68-16.558,7.439-16.558,15.118C2528.74,1688.354,2532.1,1693.393,2545.297,1698.193z M2567.855,1740.188v33.356
			c11.279-1.68,17.038-6.959,17.038-15.598C2584.893,1750.026,2580.813,1744.747,2567.855,1740.188z"/>
	</g>
	<g>
		<g>
			<g>
				<g>
					
						<line style="fill:none;stroke:#231F20;stroke-width:42.9192;stroke-linecap:round;stroke-linejoin:round;stroke-miterlimit:10;" x1="2465.178" y1="2055.002" x2="2465.178" y2="1854.106"/>
					
						<polyline style="fill:none;stroke:#231F20;stroke-width:42.9192;stroke-linecap:round;stroke-linejoin:round;stroke-miterlimit:10;" points="
						2332.19,2131.542 2332.19,1491.801 2242.959,1491.801 2398.688,1222.106 2554.417,1491.801 2465.178,1491.801 
						2465.178,1595.548 					"/>
				</g>
			</g>
		</g>
		<g>
			<g>
				<g>
					
						<polyline style="fill:none;stroke:#231F20;stroke-width:42.9192;stroke-linecap:round;stroke-linejoin:round;stroke-miterlimit:10;" points="
						2020.732,2261.86 2020.732,1644.577 1931.494,1644.577 2087.23,1374.882 2242.959,1644.577 2153.713,1644.577 
						2153.713,2234.259 					"/>
				</g>
			</g>
		</g>
		<g>
			<g>
				<g>
					
						<polyline style="fill:none;stroke:#231F20;stroke-width:42.9192;stroke-linecap:round;stroke-linejoin:round;stroke-miterlimit:10;" points="
						1709.266,2105.817 1709.266,1797.353 1620.036,1797.353 1775.765,1527.658 1931.494,1797.353 1842.255,1797.353 
						1842.255,2168.372 					"/>
				</g>
			</g>
		</g>
	</g>
	
		<circle style="fill:none;stroke:#231F20;stroke-width:42.9192;stroke-linecap:round;stroke-linejoin:round;stroke-miterlimit:10;" cx="2554.417" cy="1724.828" r="157.07"/>
	<g>
		
			<line style="fill:none;stroke:#231F20;stroke-width:42.9192;stroke-linecap:round;stroke-linejoin:round;stroke-miterlimit:10;" x1="1328.993" y1="2269.315" x2="1463.149" y2="2635.646"/>
		
			<path style="fill:none;stroke:#231F20;stroke-width:42.9192;stroke-linecap:round;stroke-linejoin:round;stroke-miterlimit:10;" d="
			M1411.833,2746.264l-83.8,30.689c-7.959,2.915-16.774-1.175-19.688-9.133l-182.904-499.443
			c-2.915-7.959,1.175-16.774,9.134-19.688l83.8-30.689"/>
		
			<path style="fill:none;stroke:#231F20;stroke-width:42.9192;stroke-linecap:round;stroke-linejoin:round;stroke-miterlimit:10;" d="
			M1463.149,2635.646c16.376,44.717-6.599,94.243-51.316,110.619"/>
		
			<path style="fill:none;stroke:#231F20;stroke-width:42.9192;stroke-linecap:round;stroke-linejoin:round;stroke-miterlimit:10;" d="
			M1218.374,2217.999c44.717-16.376,94.243,6.599,110.619,51.316"/>
		
			<path style="fill:none;stroke:#231F20;stroke-width:42.9192;stroke-linecap:round;stroke-linejoin:round;stroke-miterlimit:10;" d="
			M1309.614,2238.59l214.736-107.055c16.129-7.828,33.395-15.36,51.683-21.426c60.971-20.226,127.598-14.348,184.502,15.459
			l402.582,210.873c35.081,18.375,53.5,58.41,43.67,96.773c-3.385,13.21-16.912,34.125-26.827,44.97
			c-40.721,58.74-115.722,9.67-162.195-13.101c-45.275-22.184-89.8-46.059-134.66-69.069
			c-28.228-14.478-56.456-28.957-84.683-43.435"/>
		
			<path style="fill:none;stroke:#231F20;stroke-width:42.9192;stroke-linecap:round;stroke-linejoin:round;stroke-miterlimit:10;" d="
			M2181.442,2349.3l538.553-289.717c10.288-5.864,21.581-10.184,33.293-13.042c81.738-19.946,149.912,65.262,110.936,139.826
			c-5.429,10.386-12.667,19.666-22.268,26.731c-5.996,4.412-11.868,8.989-17.447,13.919l-3.33,2.943
			c-9.246,8.171-19.081,15.648-29.435,22.359c-140.399,90.994-458.096,345.707-641.86,456.121
			c-91.844,55.189-203.555,66.415-304.553,30.617l-273.968-111.78c-10.651-3.777-22.258-3.887-32.977-0.303l-71.196,23.801"/>
		
			<path style="fill:none;stroke:#231F20;stroke-width:42.9192;stroke-linecap:round;stroke-linejoin:round;stroke-miterlimit:10;" d="
			M2065.242,2285.178l0.005,0l439.762-253.101c52.211-29.756,118.417-15.931,154.358,32.235c4.998,6.695,9.177,13.732,12.561,21.003
			"/>
	</g>
</g>
</svg>
